<svg data-v-fde0c5aa="" xmlns="http://www.w3.org/2000/svg" viewBox="0 0 300 300" class="iconAbove"><!----><defs data-v-fde0c5aa=""><!----></defs><rect data-v-fde0c5aa="" fill="transparent" x="0" y="0" width="300px" height="300px" class="logo-background-square"></rect><defs data-v-fde0c5aa=""><!----></defs><g data-v-fde0c5aa="" id="a2a938ad-1102-4d8a-80fb-828718f034b4" fill="#2e3034" transform="matrix(3.9543726235741445,0,0,3.9543726235741445,15.254752663151846,172.20760422333112)"><path d="M2.56 13.05L1.20 13.05L1.20 3.35L7.06 3.35L7.06 4.51L2.56 4.51L2.56 7.43L6.55 7.43L6.55 8.58L2.56 8.58L2.56 13.05ZM10.93 5.61L10.93 5.61Q11.10 5.61 11.32 5.63Q11.54 5.66 11.75 5.69Q11.96 5.73 12.13 5.76Q12.31 5.80 12.39 5.82L12.39 5.82L12.17 6.96Q12.01 6.90 11.65 6.83Q11.30 6.75 10.74 6.75L10.74 6.75Q10.37 6.75 10.02 6.83Q9.66 6.90 9.55 6.93L9.55 6.93L9.55 13.05L8.25 13.05L8.25 6.08Q8.71 5.91 9.39 5.76Q10.08 5.61 10.93 5.61ZM13.24 9.42L13.24 9.42Q13.24 8.46 13.52 7.74Q13.80 7.01 14.27 6.54Q14.73 6.06 15.33 5.82Q15.93 5.59 16.56 5.59L16.56 5.59Q18.03 5.59 18.82 6.50Q19.60 7.42 19.60 9.30L19.60 9.30Q19.60 9.38 19.60 9.51Q19.60 9.65 19.59 9.76L19.59 9.76L14.60 9.76Q14.69 10.89 15.26 11.48Q15.83 12.07 17.05 12.07L17.05 12.07Q17.74 12.07 18.21 11.95Q18.68 11.83 18.91 11.72L18.91 11.72L19.10 12.81Q18.86 12.94 18.26 13.08Q17.67 13.22 16.91 13.22L16.91 13.22Q15.96 13.22 15.27 12.93Q14.57 12.64 14.13 12.14Q13.68 11.63 13.46 10.94Q13.24 10.25 13.24 9.42ZM14.63 8.71L18.24 8.71Q18.26 7.83 17.80 7.26Q17.35 6.69 16.55 6.69L16.55 6.69Q16.10 6.69 15.76 6.87Q15.41 7.04 15.18 7.32Q14.94 7.60 14.80 7.97Q14.67 8.33 14.63 8.71L14.63 8.71ZM21.07 9.42L21.07 9.42Q21.07 8.46 21.35 7.74Q21.63 7.01 22.09 6.54Q22.55 6.06 23.16 5.82Q23.76 5.59 24.39 5.59L24.39 5.59Q25.86 5.59 26.64 6.50Q27.43 7.42 27.43 9.30L27.43 9.30Q27.43 9.38 27.43 9.51Q27.43 9.65 27.41 9.76L27.41 9.76L22.43 9.76Q22.51 10.89 23.09 11.48Q23.66 12.07 24.88 12.07L24.88 12.07Q25.56 12.07 26.03 11.95Q26.50 11.83 26.74 11.72L26.74 11.72L26.92 12.81Q26.68 12.94 26.09 13.08Q25.49 13.22 24.74 13.22L24.74 13.22Q23.79 13.22 23.09 12.93Q22.40 12.64 21.95 12.14Q21.50 11.63 21.29 10.94Q21.07 10.25 21.07 9.42ZM22.46 8.71L26.07 8.71Q26.08 7.83 25.63 7.26Q25.17 6.69 24.37 6.69L24.37 6.69Q23.93 6.69 23.58 6.87Q23.24 7.04 23.00 7.32Q22.76 7.60 22.63 7.97Q22.50 8.33 22.46 8.71L22.46 8.71ZM31.67 12.10L31.49 13.19Q30.28 13.16 29.78 12.67Q29.27 12.18 29.27 11.14L29.27 11.14L29.27 2.41L30.58 2.18L30.58 10.93Q30.58 11.26 30.63 11.47Q30.69 11.68 30.81 11.80Q30.94 11.93 31.15 11.99Q31.36 12.05 31.67 12.10L31.67 12.10ZM35.59 12.11L35.59 12.11Q36.05 12.11 36.41 12.09Q36.76 12.07 37.00 12.01L37.00 12.01L37.00 9.84Q36.86 9.77 36.55 9.72Q36.23 9.67 35.78 9.67L35.78 9.67Q35.49 9.67 35.16 9.72Q34.83 9.76 34.56 9.89Q34.29 10.02 34.10 10.25Q33.92 10.49 33.92 10.86L33.92 10.86Q33.92 11.56 34.37 11.84Q34.82 12.11 35.59 12.11ZM35.48 5.59L35.48 5.59Q36.26 5.59 36.80 5.79Q37.34 5.99 37.67 6.36Q38.00 6.73 38.14 7.25Q38.28 7.76 38.28 8.37L38.28 8.37L38.28 12.92Q38.11 12.95 37.81 13.00Q37.51 13.05 37.13 13.09Q36.75 13.13 36.31 13.17Q35.87 13.20 35.43 13.20L35.43 13.20Q34.82 13.20 34.30 13.08Q33.78 12.95 33.40 12.68Q33.03 12.40 32.82 11.96Q32.61 11.51 32.61 10.88L32.61 10.88Q32.61 10.28 32.85 9.84Q33.10 9.41 33.52 9.14Q33.94 8.88 34.50 8.75Q35.06 8.62 35.67 8.62L35.67 8.62Q35.87 8.62 36.08 8.64Q36.29 8.67 36.48 8.70Q36.67 8.74 36.81 8.76Q36.95 8.79 37.00 8.81L37.00 8.81L37.00 8.44Q37.00 8.12 36.93 7.80Q36.86 7.49 36.68 7.25Q36.50 7 36.18 6.85Q35.87 6.71 35.36 6.71L35.36 6.71Q34.72 6.71 34.24 6.80Q33.75 6.89 33.52 6.99L33.52 6.99L33.36 5.91Q33.61 5.80 34.20 5.69Q34.79 5.59 35.48 5.59ZM40.43 13.05L40.43 5.98Q40.88 5.87 41.62 5.74Q42.36 5.61 43.33 5.61L43.33 5.61Q44.20 5.61 44.77 5.86Q45.35 6.10 45.69 6.54Q46.03 6.99 46.17 7.60Q46.31 8.22 46.31 8.96L46.31 8.96L46.31 13.05L45.01 13.05L45.01 9.24Q45.01 8.57 44.92 8.09Q44.83 7.62 44.62 7.32Q44.41 7.03 44.06 6.89Q43.71 6.76 43.19 6.76L43.19 6.76Q42.98 6.76 42.76 6.78Q42.53 6.79 42.33 6.81Q42.13 6.83 41.97 6.86Q41.80 6.89 41.73 6.90L41.73 6.90L41.73 13.05L40.43 13.05ZM51.63 13.22L51.63 13.22Q50.75 13.22 50.09 12.94Q49.42 12.66 48.97 12.15Q48.51 11.65 48.29 10.96Q48.06 10.26 48.06 9.42L48.06 9.42Q48.06 8.58 48.31 7.88Q48.55 7.18 49.00 6.67Q49.45 6.16 50.10 5.87Q50.75 5.59 51.55 5.59L51.55 5.59Q52.04 5.59 52.53 5.67Q53.02 5.75 53.47 5.94L53.47 5.94L53.17 7.04Q52.88 6.90 52.49 6.82Q52.11 6.73 51.67 6.73L51.67 6.73Q50.58 6.73 50.00 7.42Q49.42 8.11 49.42 9.42L49.42 9.42Q49.42 10.01 49.55 10.50Q49.69 10.99 49.97 11.34Q50.26 11.69 50.71 11.88Q51.16 12.07 51.80 12.07L51.80 12.07Q52.32 12.07 52.74 11.97Q53.16 11.87 53.40 11.76L53.40 11.76L53.58 12.85Q53.47 12.92 53.26 12.98Q53.05 13.05 52.78 13.10Q52.51 13.15 52.21 13.18Q51.91 13.22 51.63 13.22ZM54.57 9.42L54.57 9.42Q54.57 8.46 54.85 7.74Q55.13 7.01 55.59 6.54Q56.06 6.06 56.66 5.82Q57.26 5.59 57.89 5.59L57.89 5.59Q59.36 5.59 60.14 6.50Q60.93 7.42 60.93 9.30L60.93 9.30Q60.93 9.38 60.93 9.51Q60.93 9.65 60.91 9.76L60.91 9.76L55.93 9.76Q56.01 10.89 56.59 11.48Q57.16 12.07 58.38 12.07L58.38 12.07Q59.07 12.07 59.54 11.95Q60.00 11.83 60.24 11.72L60.24 11.72L60.42 12.81Q60.19 12.94 59.59 13.08Q59.00 13.22 58.24 13.22L58.24 13.22Q57.29 13.22 56.60 12.93Q55.90 12.64 55.45 12.14Q55.01 11.63 54.79 10.94Q54.57 10.25 54.57 9.42ZM55.96 8.71L59.57 8.71Q59.58 7.83 59.13 7.26Q58.67 6.69 57.88 6.69L57.88 6.69Q57.43 6.69 57.09 6.87Q56.74 7.04 56.50 7.32Q56.27 7.60 56.13 7.97Q56.00 8.33 55.96 8.71L55.96 8.71ZM65.49 5.61L65.49 5.61Q65.66 5.61 65.88 5.63Q66.09 5.66 66.30 5.69Q66.51 5.73 66.69 5.76Q66.86 5.80 66.95 5.82L66.95 5.82L66.72 6.96Q66.57 6.90 66.21 6.83Q65.86 6.75 65.30 6.75L65.30 6.75Q64.93 6.75 64.58 6.83Q64.22 6.90 64.11 6.93L64.11 6.93L64.11 13.05L62.80 13.05L62.80 6.08Q63.27 5.91 63.95 5.76Q64.64 5.61 65.49 5.61Z"></path></g><defs data-v-fde0c5aa=""><!----></defs><g data-v-fde0c5aa="" id="96410a45-eb5b-4407-ac33-bacc5290b41a" stroke="none" fill="#488eff" transform="matrix(1.119391631113108,0,0,1.119391631113108,94.0304184443446,63.202281637639)"><path d="M39 11v28.98C28.979 30.722 18.984 21.311 9 11.97L39 11zm2 1c.044.204 17.54 18.206 25.594 27.98H41V12zm-28.875 4.252l13.344 12.505L7 17.972l5.125-1.72zM83 18.972V39.98H69.437l-6.218-7.315L76 18.972h7zm2 1.813l8 7.19h-8v-7.19zm-2.969 21.196L53.531 71.4 41.5 41.981h40.531zM40 43.607c5.08 12.433 10.285 24.813 15 37.39L40 89V43.607z" overflow="visible" color="#000"></path></g><!----></svg>